<svg xmlns="http://www.w3.org/2000/svg" width="160" height="160" viewBox="0 0 160 160">
  <g stroke="rgba(0,0,0,0.06)" stroke-width="1.2" fill="none">

    <!-- Caleidoscopio -->
    <polygon points="40,20 50,26 50,38 40,44 30,38 30,26"/>

    <!-- Lupa -->
    <circle cx="120" cy="32" r="8"/>
    <line x1="126" y1="38" x2="134" y2="46"/>

    <!-- Telescopio -->
    <rect x="26" y="100" width="24" height="6" rx="2"/>
    <line x1="38" y1="106" x2="34" y2="120"/>
    <line x1="38" y1="106" x2="42" y2="120"/>

    <!-- Lámpara -->
    <path d="M120 92
             c-6 0-10 4-10 9
             0 4 3 7 5 9
             v6
             h10
             v-6
             c2-2 5-5 5-9
             0-5-4-9-10-9z"/>
    <line x1="115" y1="122" x2="125" y2="122"/>

  </g>
</svg>
